<svg width="120" height="112" fill="none" xmlns="http://www.w3.org/2000/svg"><path d="M35.365 111.057c-.115-.114-.209-.747-.209-1.405v-1.197H23.594v-3.122h-5.625v-3.122h-3.125v-2.463l-1.485-.096-1.484-.095-.156-1.56-.156-1.562-1.329-.096c-1.321-.096-1.328-.102-1.328-1.327v-1.23H5.805l-.09-2.889-.09-2.888-1.172-.097-1.172-.097v-8.704H.156v-23.07l1.485-.095 1.484-.095.085-6.01.085-6.01h2.468l.087-4.137.088-4.137 1.484-.095 1.484-.096v-5.585h2.791l.089-3.2.089-3.2h2.812v6.244l-1.472.094-1.472.095-.09 2.715-.09 2.715-1.336.097-1.334.096.085 5.836c.063 4.39.181 5.845.475 5.875.215.021.734.056 1.153.078.647.033.777.216.86 1.21.095 1.157.113 1.171 1.564 1.265l1.468.094.095 1.467.095 1.467 4.453.086 4.453.087v3.105H37.62l.096 1.327.096 1.327h44.063l.096-1.327.096-1.327h14.617l.096-1.483.095-1.483 4.141-.087 4.14-.087v-3.104h3.089l.096-1.327c.096-1.324.099-1.327 1.347-1.327h1.25l.085-5.871.085-5.871 1.477.095 1.477.095.05 4.059.05 4.058 1.278.096 1.279.096v12.14h3.125v23.105h-3.125v8.704l-1.172.097-1.172.097-.156 2.81-.157 2.81-1.562.156c-1.543.154-1.564.17-1.658 1.31-.091 1.083-.166 1.158-1.25 1.248-1.14.095-1.156.116-1.311 1.657l-.156 1.561-1.484.095-1.485.096v1.231c0 1.226-.005 1.232-1.233 1.232h-1.233l-.095 1.483-.095 1.483-2.89.09-2.891.09v3.085l-6.016.085-6.016.085-.096 1.326-.096 1.327h-24.46c-13.454 0-24.556-.093-24.67-.208Zm49.227-4.085.096-1.483 6.015-.084 6.016-.085v-3.109h2.812v-2.463l1.485-.096 1.484-.095.095-1.483.095-1.483h2.466V82.23h-2.5v-3.122h-3.125v-1.525c0-1.334-.088-1.54-.703-1.656-.387-.073-3.685-.124-7.33-.115l-6.626.018-.092-1.25-.093-1.248-5.703-.085-5.703-.085v-3.108H46.72v3.122H35.192l-.096 1.29-.096 1.29-6.563-.035c-3.609-.018-6.871.048-7.25.148-.563.149-.704.442-.78 1.632l-.095 1.45-1.35.098-1.35.097.091 1.464.092 1.464-1.554.156-1.553.156v14.05l1.602.093 1.603.093-.06 1.156c-.09 1.713.073 1.936 1.42 1.936 1.21 0 1.216.006 1.216 1.249v1.249h3.125v3.122h11.562v3.122h49.341l.095-1.483ZM23.845 39.538l-.095-1.488-1.484-.095-1.485-.095v-3.73c0-2.05-.003-3.834-.007-3.963-.005-.129.663-.305 1.484-.39l1.492-.156.09-3.026.088-3.026 1.161-.096c1.125-.094 1.164-.138 1.257-1.424l.096-1.327H29.497l.095-1.483.096-1.483h14.375l.022 1.405.022 1.405 1.306.096 1.306.096V35.36l-1.328.097c-1.32.095-1.328.103-1.275 1.267l.053 1.17h-1.532c-1.354 0-1.553.087-1.719.747a4.64 4.64 0 0 0-.084 1.483l.103.736-8.498.083-8.498.084-.096-1.489Zm17.187-11.4-.094-1.64h-3.126l-.098 1.204c-.153 1.859.037 2.075 1.824 2.075h1.588l-.094-1.64Zm37.874 11.317v-1.56h-2.5v-2.498h-3.125V20.722h3.125v-3.134l6.953.084 6.954.084.094 1.467.095 1.466 1.468.095 1.468.095.096 1.326.096 1.327h3.089v6.245h2.5v8.117h-2.5v3.123H78.906v-1.562Zm3.125-11.395v-1.718h-3.125v3.435h3.125v-1.718Zm-26.25 5.793v-1.579h1.25c1.247 0 1.25-.003 1.25-1.23 0-1.196-.032-1.232-1.172-1.326l-1.172-.097-.09-3.054-.089-3.053 4.12.087 4.12.087.032 2.966.032 2.967-1.328.096c-1.318.095-1.328.105-1.328 1.309 0 1.203.01 1.213 1.328 1.308l1.328.096.096 1.483.095 1.484h-2.847V32.24l-1.484.095-1.484.096v2.809l-1.329.096-1.328.096v-1.579Zm52.5-1.25v-2.792l-1.484-.095-1.485-.095-.089-3.036c-.086-2.942-.067-3.04.625-3.187a6.195 6.195 0 0 1 1.496-.087c.772.064.782.104.87 3.265l.089 3.2h2.478v5.62h-2.5v-2.792ZM14.844 21.972v-1.249h3.125V17.6h2.5v-5.932H14.826l.087-4.137L15 3.394H17.813l.094-1.648.095-1.648 4.124.087 4.124.087.087 4.45.086 4.448h3.108V6.048h8.438V3.55h11.875v2.498H38.003l-.095 1.483-.096 1.483-4.14.087-4.14.087v2.48h-3.126v3.086l-1.328.096c-1.322.096-1.328.103-1.424 1.423l-.096 1.327h-3.089v3.122h-2.5v2.498h-3.125v-1.249Zm87.812 0v-1.249h2.5v2.498h-2.5v-1.249Zm-3.125-2.827v-1.578l1.485.095c1.287.083 1.498.193 1.588.83a4.647 4.647 0 0 1-.084 1.483c-.164.65-.371.748-1.588.748h-1.4v-1.578ZM96.88 17.21c-.074-.215-.175-.812-.225-1.327-.086-.88-.182-.942-1.56-1.031l-1.467-.095-.095-1.466-.094-1.467-1.485-.095-1.484-.095V9.17H82.03V6.062l-5.703-.085-5.703-.085-.097-1.17c-.056-.675.043-1.175.234-1.18.183-.004 2.757-.012 5.722-.017l5.391-.01.096 1.267.096 1.266h8.401V9.17h3.109l.086-4.449.087-4.449 4.297-.087c3.312-.067 4.304.005 4.33.312.019.22.043.891.056 1.492.025 1.277.325 1.55 1.708 1.557l1.015.004V11.645l-2.89.09-2.891.09-.09 2.887-.09 2.888h-1.091c-.601 0-1.152-.175-1.225-.39ZM49.905 1.755 50 .272H70.313l.095 1.483.095 1.483H49.81l.095-1.483Z" fill="#3B3B3F"/></svg>