<svg width="173.333" height="46.667" viewBox="0 0 45.861 12.347" xmlns="http://www.w3.org/2000/svg"><g aria-label="Voice" style="font-size:14.1111px;font-family:'Blender Pro';-inkscape-font-specification:'Blender Pro';text-align:center;text-anchor:middle;fill:#343434;stroke-width:3.96875;paint-order:markers stroke fill"><path d="M-63.22 28.742v-1.764h1.764v1.764zm-1.764-1.764V23.45h1.764v3.528zm3.528 0V23.45h1.764v3.528zm-5.292-3.528v-7.055h1.764v7.055zm7.056 0v-7.055h1.763v7.055zM-54.4 28.742v-1.764h5.29v1.764zm-1.765-1.764v-5.292h1.764v5.292zm7.056 0v-5.292h1.764v5.292zm-5.292-5.292v-1.764h5.292v1.764zM-45.581 28.742v-8.82h1.764v7.056h1.763v1.764zm0-10.583v-1.764h1.764v1.764zM-38.526 28.742v-1.764h5.292v1.764zm5.292-1.764v-1.764h1.764v1.764zm-7.056 0v-5.292h1.764v5.292zm7.056-3.528v-1.764h1.764v1.764zm-5.292-1.764v-1.764h5.292v1.764zM-27.942 28.742v-1.764h7.055v1.764zm-1.764-1.764v-5.292h1.764v1.764h5.291v-1.764h1.764v3.528h-7.055v1.764zm1.764-5.292v-1.764h5.291v1.764z" style="font-family:'F77 Minecraft';-inkscape-font-specification:'F77 Minecraft, Normal';fill:#3b3b3f" transform="translate(66.748 -16.395)"/></g></svg>